<svg xmlns="http://www.w3.org/2000/svg" xmlns:xlink="http://www.w3.org/1999/xlink" version="1.1" xml:space="preserve" viewBox="0 0 1080 1080">
<desc>Created with Fabric.js 5.2.4</desc>
<defs>
</defs>
<rect x="0" y="0" width="100%" height="100%" fill="transparent"/>
<g transform="matrix(1 0 0 1 540 540)" id="206ef5d8-1d6d-448c-8b98-ca7e1854975d">
<rect style="stroke: none; stroke-width: 1; stroke-dasharray: none; stroke-linecap: butt; stroke-dashoffset: 0; stroke-linejoin: miter; stroke-miterlimit: 4; fill: rgb(255,255,255); fill-rule: nonzero; opacity: 1; visibility: hidden;" vector-effect="non-scaling-stroke" x="-540" y="-540" rx="0" ry="0" width="1080" height="1080"/>
</g>
<g transform="matrix(1 0 0 1 540 540)" id="52d2ba64-6c2a-40f9-946b-a570b189bc61">
</g>
<g transform="matrix(1 0 0 1 540 606.31)">
<path style="stroke: none; stroke-width: 1; stroke-dasharray: none; stroke-linecap: butt; stroke-dashoffset: 0; stroke-linejoin: miter; stroke-miterlimit: 4; fill: rgb(63,61,86); fill-rule: nonzero; opacity: 1;" vector-effect="non-scaling-stroke" transform=" translate(-464, -605.66)" d="M 654.5 606.66024 L 273.5 606.66024 C 272.9477152501692 606.66024 272.5 606.2125247498309 272.5 605.66024 C 272.5 605.1079552501692 272.9477152501692 604.66024 273.5 604.66024 L 654.5 604.66024 C 655.0522847498308 604.66024 655.5 605.1079552501692 655.5 605.66024 C 655.5 606.2125247498309 655.0522847498308 606.66024 654.5 606.66024 Z" stroke-linecap="round"/>
</g>
<g transform="matrix(1 0 0 1 547.56 449.31)">
<circle style="stroke: none; stroke-width: 1; stroke-dasharray: none; stroke-linecap: butt; stroke-dashoffset: 0; stroke-linejoin: miter; stroke-miterlimit: 4; fill: rgb(47,46,65); fill-rule: nonzero; opacity: 1;" vector-effect="non-scaling-stroke" cx="0" cy="0" r="27"/>
</g>
<g transform="matrix(1 0 0 1 545.15 612.22)">
<polygon style="stroke: none; stroke-width: 1; stroke-dasharray: none; stroke-linecap: butt; stroke-dashoffset: 0; stroke-linejoin: miter; stroke-miterlimit: 4; fill: rgb(255,184,184); fill-rule: nonzero; opacity: 1;" vector-effect="non-scaling-stroke" points="-23.25,10.41 -23.96,-1.83 22.91,-10.41 23.96,7.65 -23.25,10.41 "/>
</g>
<g transform="matrix(0.06 1 -1 0.06 517 606.25)">
<path style="stroke: none; stroke-width: 1; stroke-dasharray: none; stroke-linecap: butt; stroke-dashoffset: 0; stroke-linejoin: miter; stroke-miterlimit: 4; fill: rgb(47,46,65); fill-rule: nonzero; opacity: 1;" vector-effect="non-scaling-stroke" transform=" translate(-441, -605.61)" d="M 436.62166 598.16324 L 460.26553 598.16324 L 460.26553 613.05011 L 421.7348 613.05011 L 421.7348 613.05011 C 421.73479734783393 609.1018675134574 423.3032287095681 605.3153338526441 426.09505680788976 602.5235038789585 C 428.8868849062114 599.7316739052729 432.67341751345646 598.1632399999991 436.62166 598.16324 Z" stroke-linecap="round"/>
</g>
<g transform="matrix(1 0 0 1 518.28 612.24)">
<polygon style="stroke: none; stroke-width: 1; stroke-dasharray: none; stroke-linecap: butt; stroke-dashoffset: 0; stroke-linejoin: miter; stroke-miterlimit: 4; fill: rgb(255,184,184); fill-rule: nonzero; opacity: 1;" vector-effect="non-scaling-stroke" points="24.01,10.28 16.23,19.75 -24.01,-5.77 -12.52,-19.75 24.01,10.28 "/>
</g>
<g transform="matrix(0.63 -0.77 0.77 0.63 534.77 637.88)">
<path style="stroke: none; stroke-width: 1; stroke-dasharray: none; stroke-linecap: butt; stroke-dashoffset: 0; stroke-linejoin: miter; stroke-miterlimit: 4; fill: rgb(47,46,65); fill-rule: nonzero; opacity: 1;" vector-effect="non-scaling-stroke" transform=" translate(-458.77, -637.23)" d="M 454.38952 629.78677 L 478.03338 629.78677 L 478.03338 644.6736400000001 L 439.50266 644.6736400000001 L 439.50266 644.6736400000001 C 439.5026573478339 640.7253975134574 441.0710887095681 636.9388638526442 443.86291680788975 634.1470338789586 C 446.65474490621136 631.355203905273 450.44127751345644 629.7867699999991 454.38952 629.78677 Z" stroke-linecap="round"/>
</g>
<g transform="matrix(1 0 0 1 544.63 592.27)">
<path style="stroke: none; stroke-width: 1; stroke-dasharray: none; stroke-linecap: butt; stroke-dashoffset: 0; stroke-linejoin: miter; stroke-miterlimit: 4; fill: rgb(47,46,65); fill-rule: nonzero; opacity: 1;" vector-effect="non-scaling-stroke" transform=" translate(-468.63, -591.62)" d="M 443.88663 577.83023 L 438.56688 602.90907 C 438.3188653542918 604.0782770065221 438.6066952849049 605.2971318146441 439.3515530242638 606.2318741517099 C 440.09641076362277 607.1666164887756 441.22024315045536 607.7192953091993 442.41531000000003 607.7385700000001 L 494.71316 608.5820800000001 C 495.9067584563409 608.6013309364793 497.0465759189889 608.0864685368612 497.8211917168445 607.1781633903123 C 498.59580751470014 606.2698582437635 498.92425653125946 605.0630490698594 498.71680000000003 603.8874600000001 L 494.14227000000005 577.9651000000001 C 493.80495906975113 576.0536676082709 492.1440968858098 574.6602373170854 490.20313000000004 574.6602400000002 L 447.79957 574.6602400000002 C 445.91030912703087 574.6602390317148 444.27865635429316 575.9820898582162 443.88663 577.83023 Z" stroke-linecap="round"/>
</g>
<g transform="matrix(1 0 0 1 502.16 597.82)">
<path style="stroke: none; stroke-width: 1; stroke-dasharray: none; stroke-linecap: butt; stroke-dashoffset: 0; stroke-linejoin: miter; stroke-miterlimit: 4; fill: rgb(47,46,65); fill-rule: nonzero; opacity: 1;" vector-effect="non-scaling-stroke" transform=" translate(-426.16, -597.17)" d="M 452.55906 586.66024 C 452.55906 586.66024 401.55906 554.66024 391.55906 571.66024 C 386.55906 580.16024 389.05906 588.41024 392.80906 594.53524 C 396.2890853355884 600.112137748241 401.28452587123576 604.5833631186903 407.21155999999996 607.42636 L 448.55905999999993 627.66024 L 463.55905999999993 611.66024 L 453.55905999999993 602.66024 Z" stroke-linecap="round"/>
</g>
<g transform="matrix(1 0 0 1 574.91 600.64)">
<path style="stroke: none; stroke-width: 1; stroke-dasharray: none; stroke-linecap: butt; stroke-dashoffset: 0; stroke-linejoin: miter; stroke-miterlimit: 4; fill: rgb(47,46,65); fill-rule: nonzero; opacity: 1;" vector-effect="non-scaling-stroke" transform=" translate(-498.91, -599.99)" d="M 478.55906 581.66024 C 478.55906 581.66024 544.55906 562.66024 531.55906 598.66024 C 518.55906 634.66024 469.55906000000004 620.66024 469.55906000000004 620.66024 L 464.55906000000004 605.66024 L 481.55906000000004 593.66024 Z" stroke-linecap="round"/>
</g>
<g transform="matrix(1 0 0 1 547.9 455.47)">
<circle style="stroke: none; stroke-width: 1; stroke-dasharray: none; stroke-linecap: butt; stroke-dashoffset: 0; stroke-linejoin: miter; stroke-miterlimit: 4; fill: rgb(255,184,184); fill-rule: nonzero; opacity: 1;" vector-effect="non-scaling-stroke" cx="0" cy="0" r="24.56103"/>
</g>
<g transform="matrix(1 0 0 1 545.9 536.89)">
<path style="stroke: none; stroke-width: 1; stroke-dasharray: none; stroke-linecap: butt; stroke-dashoffset: 0; stroke-linejoin: miter; stroke-miterlimit: 4; fill: rgb(204,204,204); fill-rule: nonzero; opacity: 1;" vector-effect="non-scaling-stroke" transform=" translate(-469.9, -536.24)" d="M 473.18454 585.629 C 462.97864071497895 585.4745808990799 452.82509692267126 584.1368650247923 442.92746000000005 581.6426700000001 L 442.63498000000004 581.5626000000001 L 428.92942000000005 518.5176700000001 C 426.37781053891933 507.05262591484467 432.7876868927934 495.4872900006828 443.86228000000006 491.57432000000006 C 460.39210320853994 485.64353150210144 478.4084210994244 485.2837569470413 495.16184000000004 490.54990000000004 L 495.16208000000006 490.54990000000004 C 506.8204276553188 494.30686478720827 513.6290863028498 506.3976882165767 510.79708000000005 518.31455 L 495.48873000000003 581.50986 L 495.27316 581.6124 C 488.91135 584.62606 480.956 585.629 473.18454 585.629 Z" stroke-linecap="round"/>
</g>
<g transform="matrix(1 0 0 1 552.42 583.6)">
<path style="stroke: none; stroke-width: 1; stroke-dasharray: none; stroke-linecap: butt; stroke-dashoffset: 0; stroke-linejoin: miter; stroke-miterlimit: 4; fill: rgb(255,184,184); fill-rule: nonzero; opacity: 1;" vector-effect="non-scaling-stroke" transform=" translate(-476.42, -582.96)" d="M 454.77438 590.52651 C 455.7819521700286 587.7263116989913 457.97809523909666 585.51623214113 460.77186385639584 584.4909667531533 C 463.565632473695 583.4657013651765 466.67003915139514 583.7305696557339 469.24974000000003 585.2143 L 496.23625000000004 561.78978 L 498.67788 580.19826 L 472.67671 599.62036 C 469.83452297251614 603.8824767262049 464.2536993902775 605.3451990570625 459.6863302686766 603.0251116893025 C 455.11896114707565 600.7050243215425 453.0087281545701 595.3354745088858 454.77438 590.52651 Z" stroke-linecap="round"/>
</g>
<g transform="matrix(1 0 0 1 580.87 544.14)">
<path style="stroke: none; stroke-width: 1; stroke-dasharray: none; stroke-linecap: butt; stroke-dashoffset: 0; stroke-linejoin: miter; stroke-miterlimit: 4; fill: rgb(204,204,204); fill-rule: nonzero; opacity: 1;" vector-effect="non-scaling-stroke" transform=" translate(-504.87, -543.5)" d="M 480.51218 595.63583 C 480.0731084414475 595.6354658381267 479.63641844123487 595.5713193415165 479.21579 595.4454000000001 C 477.8302900783421 595.0420865584387 476.72614804863804 593.9923577392789 476.25339 592.62899 L 472.99607000000003 583.40048 C 472.371793096076 581.6544169472585 472.88983502596545 579.7042212421705 474.29831 578.4981300000001 L 511.06711 556.4239100000001 L 496.573 491.76278 L 496.94165 491.67391000000003 C 497.09155999999996 491.63681 511.9419 488.25691000000006 518.02735 504.48446 C 522.28882 515.8497 538.0588399999999 540.56161 536.94629 557.26083 C 536.5111825462944 564.1370443050961 531.4137657582589 569.8159107922271 524.62429 570.98837 L 483.23611 594.70126 C 482.45659934546796 595.3056844085687 481.49856918603393 595.634380904478 480.51218 595.63583 Z" stroke-linecap="round"/>
</g>
<g transform="matrix(1 0 0 1 538.99 581.41)">
<path style="stroke: none; stroke-width: 1; stroke-dasharray: none; stroke-linecap: butt; stroke-dashoffset: 0; stroke-linejoin: miter; stroke-miterlimit: 4; fill: rgb(255,184,184); fill-rule: nonzero; opacity: 1;" vector-effect="non-scaling-stroke" transform=" translate(-462.99, -580.76)" d="M 484.63609 588.33293 C 483.6285120033592 585.5327363829872 481.4323686332851 583.3226617715998 478.63860230157155 582.297397222394 C 475.844835969858 581.2721326731881 472.74043226223387 581.5369969967747 470.16073 583.02072 L 443.17423 559.5962 L 440.73260000000005 578.00468 L 466.73377000000005 597.42678 C 469.57596592906066 601.6888734467179 475.1567737798561 603.1515791523126 479.72412951340016 600.83149728932 C 484.29148524694415 598.5114154263275 486.40171996509315 593.1418871711641 484.63609 588.33293 Z" stroke-linecap="round"/>
</g>
<g transform="matrix(1 0 0 1 511.75 544.14)">
<path style="stroke: none; stroke-width: 1; stroke-dasharray: none; stroke-linecap: butt; stroke-dashoffset: 0; stroke-linejoin: miter; stroke-miterlimit: 4; fill: rgb(204,204,204); fill-rule: nonzero; opacity: 1;" vector-effect="non-scaling-stroke" transform=" translate(-435.75, -543.5)" d="M 461.60593 595.63583 C 460.6195579477038 595.6343698406137 459.6615471108776 595.3056739407309 458.88205 594.70126 L 414.49387 572.98837 C 407.70439424174106 571.8159107922271 402.6069774537056 566.1370443050961 402.17187 559.26083 C 401.05932 542.5616100000001 419.82934 515.8497000000001 424.09081000000003 504.48446000000007 C 430.17581 488.2569200000001 445.02636 491.63583000000006 445.17651 491.6739100000001 L 445.54516 491.7627800000001 L 428.051 558.42391 L 467.8198 578.49813 C 469.22827497403455 579.7042212421704 469.746316903924 581.6544169472584 469.12203999999997 583.4004799999999 L 465.86472 592.6289899999999 C 465.39196195136196 593.9923577392788 464.2878199216579 595.0420865584385 462.90232 595.4454 C 462.4816876584066 595.5713017633711 462.04500023902705 595.6354478808762 461.60593 595.63583 Z" stroke-linecap="round"/>
</g>
<g transform="matrix(1 0 0 1 546.06 574.81)">
<path style="stroke: none; stroke-width: 1; stroke-dasharray: none; stroke-linecap: butt; stroke-dashoffset: 0; stroke-linejoin: miter; stroke-miterlimit: 4; fill: rgb(99,102,241); fill-rule: nonzero; opacity: 1;" vector-effect="non-scaling-stroke" transform=" translate(-470.06, -574.16)" d="M 514.55908 605.66016 L 425.55908 605.66016 C 421.6949554040765 605.6556523909887 418.5635876090113 602.5242845959235 418.55908 598.66016 L 418.55908 549.66016 C 418.5635876090113 545.7960354040765 421.6949554040765 542.6646676090113 425.55908 542.66016 L 514.55908 542.66016 C 518.4232068771279 542.664662110764 521.554577889236 545.7960331228721 521.55908 549.66016 L 521.55908 598.66016 C 521.5545723909887 602.5242845959235 518.4232045959235 605.6556523909887 514.55908 605.66016 Z" stroke-linecap="round"/>
</g>
<g transform="matrix(1 0 0 1 546.06 574.81)">
<circle style="stroke: none; stroke-width: 1; stroke-dasharray: none; stroke-linecap: butt; stroke-dashoffset: 0; stroke-linejoin: miter; stroke-miterlimit: 4; fill: rgb(255,255,255); fill-rule: nonzero; opacity: 1;" vector-effect="non-scaling-stroke" cx="0" cy="0" r="6"/>
</g>
<g transform="matrix(1 0 0 1 544.75 440.96)">
<path style="stroke: none; stroke-width: 1; stroke-dasharray: none; stroke-linecap: butt; stroke-dashoffset: 0; stroke-linejoin: miter; stroke-miterlimit: 4; fill: rgb(47,46,65); fill-rule: nonzero; opacity: 1;" vector-effect="non-scaling-stroke" transform=" translate(-468.75, -440.31)" d="M 447.09061 453.82593 C 445.63495 450.13363000000004 448.02327 445.73351 451.56629000000004 443.94493 C 455.10931000000005 442.15635 459.38475000000005 442.4965 463.17453000000006 443.67529 C 466.35937000000007 444.66592 469.34429000000006 446.20117 472.45141000000007 447.41374 C 475.51459137613233 448.7711849458007 478.8607970091192 449.3671180430317 482.20428000000004 449.15065000000004 C 485.51856000000004 448.77634000000006 488.81719000000004 446.91787000000005 490.17335 443.87065000000007 C 491.57909 440.71206000000006 490.62298000000004 436.85749000000004 488.45819 434.1618500000001 C 486.1548817721985 431.55581659112926 483.17377526916744 429.63984075439345 479.84648 428.62705000000005 C 472.53898 426.05262000000005 464.09819 425.97736000000003 457.31414 429.71955 C 450.53009000000003 433.46174 445.91968 441.42975 447.32195 449.04955" stroke-linecap="round"/>
</g>
<g transform="matrix(1 0 0 1 388.02 571.2)">
<path style="stroke: none; stroke-width: 1; stroke-dasharray: none; stroke-linecap: butt; stroke-dashoffset: 0; stroke-linejoin: miter; stroke-miterlimit: 4; fill: rgb(230,230,230); fill-rule: nonzero; opacity: 1;" vector-effect="non-scaling-stroke" transform=" translate(-312.02, -570.55)" d="M 305.16247 594.9787 C 306.39792833036125 581.6732407555448 309.8101811939687 568.6610033538246 315.263 556.46148 Q 317.54260999999997 551.36899 320.28112999999996 546.50072 C 320.47147708223514 546.1479046340617 320.34797022273557 545.7077103139657 320.00187165784973 545.5054073788867 C 319.65577309296384 545.3031044438077 319.2116120603552 545.4114832281721 318.99758999999995 545.75046 C 312.35831787875395 557.5713985146512 307.70705889147587 570.4031915930718 305.2297899999999 583.73277 Q 304.1961299999999 589.31633 303.6760099999999 594.9787 C 303.58789999999993 595.93084 305.0749399999999 595.92483 305.1624899999999 594.9787 Z" stroke-linecap="round"/>
</g>
<g transform="matrix(1 0 0 1 399.88 540.12)">
<circle style="stroke: none; stroke-width: 1; stroke-dasharray: none; stroke-linecap: butt; stroke-dashoffset: 0; stroke-linejoin: miter; stroke-miterlimit: 4; fill: rgb(99,102,241); fill-rule: nonzero; opacity: 1;" vector-effect="non-scaling-stroke" cx="0" cy="0" r="9.4144"/>
</g>
<g transform="matrix(1 0 0 1 386.58 580.03)">
<path style="stroke: none; stroke-width: 1; stroke-dasharray: none; stroke-linecap: butt; stroke-dashoffset: 0; stroke-linejoin: miter; stroke-miterlimit: 4; fill: rgb(230,230,230); fill-rule: nonzero; opacity: 1;" vector-effect="non-scaling-stroke" transform=" translate(-310.58, -579.38)" d="M 306.1255 595.22874 C 306.926994709514 586.5968711412057 309.14067726382734 578.1552282024111 312.67816999999997 570.24083 Q 314.15705999999994 566.9371 315.93366 563.77883 C 316.0570927577595 563.5499486339857 315.9769556941824 563.2644229178368 315.75245284641005 563.1331948844796 C 315.5279499986377 563.0019668511223 315.2398381815938 563.07224105991 315.10096999999996 563.2921 C 310.79377038562984 570.960894310519 307.7762833528515 579.2854742166205 306.16916 587.93299 Q 305.49857 591.55531 305.16116 595.22875 C 305.104 595.84645 306.06871 595.84255 306.12551 595.22875 Z" stroke-linecap="round"/>
</g>
<g transform="matrix(1 0 0 1 394.27 559.87)">
<circle style="stroke: none; stroke-width: 1; stroke-dasharray: none; stroke-linecap: butt; stroke-dashoffset: 0; stroke-linejoin: miter; stroke-miterlimit: 4; fill: rgb(99,102,241); fill-rule: nonzero; opacity: 1;" vector-effect="non-scaling-stroke" cx="0" cy="0" r="6.10756"/>
</g>
<g transform="matrix(1 0 0 1 374.67 580.08)">
<path style="stroke: none; stroke-width: 1; stroke-dasharray: none; stroke-linecap: butt; stroke-dashoffset: 0; stroke-linejoin: miter; stroke-miterlimit: 4; fill: rgb(230,230,230); fill-rule: nonzero; opacity: 1;" vector-effect="non-scaling-stroke" transform=" translate(-298.67, -579.43)" d="M 304.90835 594.6522 C 300.23119388376557 587.3531717109771 296.784522834211 579.3355512384869 294.70594 570.91943 Q 293.84002 567.4049 293.29831 563.82194 C 293.25494441778676 563.5654714596911 293.01610082291813 563.3895295802749 292.7583062970543 563.4241513699963 C 292.5005117711905 563.4587731597176 292.3165520260794 563.6914975029242 292.34239 563.95032 C 293.6630054821831 572.6462022526686 296.4038896838062 581.0659078729378 300.45545000000004 588.87278 Q 302.15464000000003 592.14135 304.14797000000004 595.2453300000001 C 304.48282000000006 595.7675300000001 305.24108000000007 595.1711100000001 304.90835000000004 594.6522000000001 Z" stroke-linecap="round"/>
</g>
<g transform="matrix(1 0 0 1 368.33 559.44)">
<circle style="stroke: none; stroke-width: 1; stroke-dasharray: none; stroke-linecap: butt; stroke-dashoffset: 0; stroke-linejoin: miter; stroke-miterlimit: 4; fill: rgb(99,102,241); fill-rule: nonzero; opacity: 1;" vector-effect="non-scaling-stroke" cx="0" cy="0" r="6.10756"/>
</g>
<g transform="matrix(1 0 0 1 380.66 594.7)">
<path style="stroke: none; stroke-width: 1; stroke-dasharray: none; stroke-linecap: butt; stroke-dashoffset: 0; stroke-linejoin: miter; stroke-miterlimit: 4; fill: rgb(242,242,242); fill-rule: nonzero; opacity: 1;" vector-effect="non-scaling-stroke" transform=" translate(-304.66, -594.06)" d="M 286.15857 600.05591 L 286.15857 588.05591 C 286.1613695584939 585.571789164951 288.174449164951 583.5587095584939 290.65857 583.55591 L 318.65857 583.55591 C 321.142690835049 583.5587095584939 323.1557704415061 585.571789164951 323.15857 588.05591 L 323.15857 600.05591 C 323.1557704415061 602.540030835049 321.142690835049 604.5531104415062 318.65857 604.55591 L 290.65857 604.55591 C 288.174449164951 604.5531104415062 286.1613695584939 602.540030835049 286.15857 600.05591 Z" stroke-linecap="round"/>
</g>
<g transform="matrix(1 0 0 1 651 613.2)">
<path style="stroke: none; stroke-width: 1; stroke-dasharray: none; stroke-linecap: butt; stroke-dashoffset: 0; stroke-linejoin: miter; stroke-miterlimit: 4; fill: rgb(255,101,132); fill-rule: nonzero; opacity: 1;" vector-effect="non-scaling-stroke" transform=" translate(-575, -612.55)" d="M 586.90885 614.06085 C 586.90885 620.63792 581.57707 623.6274199999999 575 623.6274199999999 C 568.42293 623.6274199999999 563.09115 620.6379199999999 563.09115 614.06085 C 563.09115 607.48378 565.73756 599.80972 575 602.45614 C 584.26244 598.48652 586.90885 607.48377 586.90885 614.06085 Z" stroke-linecap="round"/>
</g>
<g transform="matrix(1 0 0 1 648.64 598.06)">
<path style="stroke: none; stroke-width: 1; stroke-dasharray: none; stroke-linecap: butt; stroke-dashoffset: 0; stroke-linejoin: miter; stroke-miterlimit: 4; fill: rgb(63,61,86); fill-rule: nonzero; opacity: 1;" vector-effect="non-scaling-stroke" transform=" translate(-572.64, -597.42)" d="M 574.41992 605.53711 C 573.4618463134815 605.5387274177555 572.6518506636 604.8280714631203 572.52881 603.87793 C 572.1345200000001 600.59668 569.96118 594.16993 569.04517 591.55957 L 569.0449199999999 591.55857 C 568.856676557865 591.031950475512 568.9389890687883 590.4464708773363 569.26514 589.99217 C 569.5758054246213 589.5874197144299 570.0447081801802 589.3348165114149 570.5536132647705 589.2980549200146 C 571.062518349361 589.2612933286142 571.5628578824148 589.4438817291427 571.92847 589.7997799999999 C 572.2547943829794 590.1418972350634 572.424387028519 590.6041681208691 572.3967299999999 591.07615 C 572.2172899999999 594.42674 574.6596699999999 599.8408 576.13159 602.77049 C 576.4137747041525 603.331086582362 576.4022135423102 603.9946060326887 576.1006703875267 604.5450317417693 C 575.7991272327432 605.09545745085 575.2461735670412 605.4623824636409 574.6218299999999 605.52635 C 574.5547878622551 605.5337955090251 574.4873737360683 605.5373880799615 574.41992 605.53711 Z" stroke-linecap="round"/>
</g>
<g transform="matrix(1 0 0 1 655.27 595.6)">
<path style="stroke: none; stroke-width: 1; stroke-dasharray: none; stroke-linecap: butt; stroke-dashoffset: 0; stroke-linejoin: miter; stroke-miterlimit: 4; fill: rgb(63,61,86); fill-rule: nonzero; opacity: 1;" vector-effect="non-scaling-stroke" transform=" translate(-579.27, -594.95)" d="M 583.232 598.14572 C 587.3659299999999 594.7623 584.12256 587.83809 578.94859 589.16732 C 578.2524600327602 589.3336088429229 577.6107182543182 589.67593540109 577.08489 590.16148 C 573.91108 593.15959 573.41922 600.8305399999999 573.41922 600.8305399999999 C 573.41922 600.8305399999999 579.02377 601.58992 583.232 598.14572 Z" stroke-linecap="round"/>
</g>
</svg>